<svg xmlns="http://www.w3.org/2000/svg" xmlns:xlink="http://www.w3.org/1999/xlink" width="439" zoomAndPan="magnify" viewBox="0 0 329.25 240.749997" height="321" preserveAspectRatio="xMidYMid meet" version="1.0"><defs><clipPath id="698a340f8e"><path d="M 172 0.148438 L 328.5 0.148438 L 328.5 171 L 172 171 Z M 172 0.148438 " clip-rule="nonzero"/></clipPath><clipPath id="0a96cc6cee"><path d="M 30 63 L 127 63 L 127 110 L 30 110 Z M 30 63 " clip-rule="nonzero"/></clipPath><clipPath id="e0e171f797"><path d="M 30.222656 74.570312 L 34.535156 63.105469 L 126.996094 97.886719 L 122.683594 109.351562 Z M 30.222656 74.570312 " clip-rule="nonzero"/></clipPath><clipPath id="36ce5a0347"><path d="M 0.101562 0 L 97 0 L 97 46.578125 L 0.101562 46.578125 Z M 0.101562 0 " clip-rule="nonzero"/></clipPath><clipPath id="3bb16144e1"><path d="M 0.222656 11.570312 L 4.535156 0.105469 L 96.996094 34.886719 L 92.683594 46.351562 Z M 0.222656 11.570312 " clip-rule="nonzero"/></clipPath><clipPath id="df87eef7cb"><rect x="0" width="97" y="0" height="47"/></clipPath><clipPath id="06eef91cfa"><path d="M 52 59 L 106 59 L 106 113 L 52 113 Z M 52 59 " clip-rule="nonzero"/></clipPath><clipPath id="7be85042ec"><path d="M 63.53125 51.835938 L 112.75 70.351562 L 94.234375 119.570312 L 45.015625 101.054688 Z M 63.53125 51.835938 " clip-rule="nonzero"/></clipPath><clipPath id="72c6311671"><path d="M 88.140625 61.09375 C 74.546875 55.980469 59.386719 62.855469 54.273438 76.445312 C 49.160156 90.039062 56.035156 105.199219 69.625 110.3125 C 83.214844 115.425781 98.378906 108.550781 103.492188 94.960938 C 108.605469 81.371094 101.730469 66.207031 88.140625 61.09375 Z M 88.140625 61.09375 " clip-rule="nonzero"/></clipPath><clipPath id="9a0f7d1103"><path d="M 0 0 L 54 0 L 54 54 L 0 54 Z M 0 0 " clip-rule="nonzero"/></clipPath><clipPath id="ee517ab53a"><path d="M 11.53125 -7.164062 L 60.75 11.351562 L 42.234375 60.570312 L -6.984375 42.054688 Z M 11.53125 -7.164062 " clip-rule="nonzero"/></clipPath><clipPath id="0d0ac8a59c"><path d="M 36.140625 2.09375 C 22.546875 -3.019531 7.386719 3.855469 2.273438 17.445312 C -2.839844 31.039062 4.035156 46.199219 17.625 51.3125 C 31.214844 56.425781 46.378906 49.550781 51.492188 35.960938 C 56.605469 22.371094 49.730469 7.207031 36.140625 2.09375 Z M 36.140625 2.09375 " clip-rule="nonzero"/></clipPath><clipPath id="d1ebfd6bff"><rect x="0" width="54" y="0" height="54"/></clipPath><clipPath id="15cfe38d91"><path d="M 55 62 L 102 62 L 102 109 L 55 109 Z M 55 62 " clip-rule="nonzero"/></clipPath><clipPath id="48e1b3f3c8"><path d="M 65.382812 56.273438 L 108.433594 72.46875 L 92.238281 115.515625 L 49.191406 99.320312 Z M 65.382812 56.273438 " clip-rule="nonzero"/></clipPath><clipPath id="48953de7e0"><path d="M 86.90625 64.371094 C 75.019531 59.898438 61.757812 65.910156 57.285156 77.796875 C 52.816406 89.683594 58.828125 102.945312 70.714844 107.417969 C 82.601562 111.890625 95.863281 105.878906 100.335938 93.992188 C 104.808594 82.101562 98.796875 68.839844 86.90625 64.371094 Z M 86.90625 64.371094 " clip-rule="nonzero"/></clipPath><clipPath id="753d7cb70c"><path d="M 0 0 L 47 0 L 47 47 L 0 47 Z M 0 0 " clip-rule="nonzero"/></clipPath><clipPath id="5e38b6919e"><path d="M 10.382812 -5.726562 L 53.433594 10.46875 L 37.238281 53.515625 L -5.808594 37.320312 Z M 10.382812 -5.726562 " clip-rule="nonzero"/></clipPath><clipPath id="57553663ed"><path d="M 31.90625 2.371094 C 20.019531 -2.101562 6.757812 3.910156 2.285156 15.796875 C -2.183594 27.683594 3.828125 40.945312 15.714844 45.417969 C 27.601562 49.890625 40.863281 43.878906 45.335938 31.992188 C 49.808594 20.101562 43.796875 6.839844 31.90625 2.371094 Z M 31.90625 2.371094 " clip-rule="nonzero"/></clipPath><clipPath id="62d4b650fe"><rect x="0" width="47" y="0" height="47"/></clipPath><clipPath id="59f1c81f26"><path d="M 57 65 L 100 65 L 100 107 L 57 107 Z M 57 65 " clip-rule="nonzero"/></clipPath><clipPath id="a578e8b95f"><path d="M 66.574219 58.992188 L 105.835938 73.761719 L 91.066406 113.023438 L 51.804688 98.253906 Z M 66.574219 58.992188 " clip-rule="nonzero"/></clipPath><clipPath id="ed35d33d29"><path d="M 86.203125 66.378906 C 75.363281 62.300781 63.265625 67.78125 59.1875 78.625 C 55.109375 89.464844 60.59375 101.5625 71.433594 105.640625 C 82.277344 109.71875 94.371094 104.234375 98.449219 93.394531 C 102.527344 82.550781 97.046875 70.457031 86.203125 66.378906 Z M 86.203125 66.378906 " clip-rule="nonzero"/></clipPath><clipPath id="eac175322d"><path d="M 0 0 L 43 0 L 43 42 L 0 42 Z M 0 0 " clip-rule="nonzero"/></clipPath><clipPath id="61d1ad34ff"><path d="M 9.574219 -6.007812 L 48.835938 8.761719 L 34.066406 48.023438 L -5.195312 33.253906 Z M 9.574219 -6.007812 " clip-rule="nonzero"/></clipPath><clipPath id="79ab20bc75"><path d="M 29.203125 1.378906 C 18.363281 -2.699219 6.265625 2.78125 2.1875 13.625 C -1.890625 24.464844 3.59375 36.5625 14.433594 40.640625 C 25.277344 44.71875 37.371094 39.234375 41.449219 28.394531 C 45.527344 17.550781 40.046875 5.457031 29.203125 1.378906 Z M 29.203125 1.378906 " clip-rule="nonzero"/></clipPath><clipPath id="8b5469a0c7"><rect x="0" width="43" y="0" height="42"/></clipPath><clipPath id="4db281bff5"><path d="M 69 76 L 89 76 L 89 97 L 69 97 Z M 69 76 " clip-rule="nonzero"/></clipPath><clipPath id="7fd0dec7ac"><path d="M 73.140625 74.148438 L 91.289062 80.976562 L 84.464844 99.121094 L 66.316406 92.296875 Z M 73.140625 74.148438 " clip-rule="nonzero"/></clipPath><clipPath id="1a0f5088d8"><path d="M 82.214844 77.5625 C 77.203125 75.675781 71.613281 78.210938 69.730469 83.222656 C 67.84375 88.234375 70.378906 93.824219 75.390625 95.710938 C 80.402344 97.59375 85.992188 95.058594 87.875 90.046875 C 89.761719 85.039062 87.226562 79.445312 82.214844 77.5625 Z M 82.214844 77.5625 " clip-rule="nonzero"/></clipPath><clipPath id="1d6273590e"><path d="M 0 0 L 20 0 L 20 21 L 0 21 Z M 0 0 " clip-rule="nonzero"/></clipPath><clipPath id="0eed6d3e72"><path d="M 4.140625 -1.851562 L 22.289062 4.976562 L 15.464844 23.121094 L -2.683594 16.296875 Z M 4.140625 -1.851562 " clip-rule="nonzero"/></clipPath><clipPath id="f6056bb1e7"><path d="M 13.214844 1.5625 C 8.203125 -0.324219 2.613281 2.210938 0.730469 7.222656 C -1.15625 12.234375 1.378906 17.824219 6.390625 19.710938 C 11.402344 21.59375 16.992188 19.058594 18.875 14.046875 C 20.761719 9.039062 18.226562 3.445312 13.214844 1.5625 Z M 13.214844 1.5625 " clip-rule="nonzero"/></clipPath><clipPath id="359fa60569"><rect x="0" width="20" y="0" height="21"/></clipPath><clipPath id="d6b97e749a"><path d="M 57 76 L 101 76 L 101 96 L 57 96 Z M 57 76 " clip-rule="nonzero"/></clipPath><clipPath id="ea496824dd"><path d="M 58.644531 76.835938 L 100.28125 92.5 L 99.238281 95.273438 L 57.601562 79.609375 Z M 58.644531 76.835938 " clip-rule="nonzero"/></clipPath><clipPath id="2073417d11"><path d="M 0.398438 0.773438 L 43.5 0.773438 L 43.5 19.453125 L 0.398438 19.453125 Z M 0.398438 0.773438 " clip-rule="nonzero"/></clipPath><clipPath id="dee939ff17"><path d="M 1.644531 0.835938 L 43.28125 16.5 L 42.238281 19.273438 L 0.601562 3.609375 Z M 1.644531 0.835938 " clip-rule="nonzero"/></clipPath><clipPath id="cb1c6616b8"><rect x="0" width="44" y="0" height="20"/></clipPath><clipPath id="2a1bef98d5"><path d="M 69 64 L 89 64 L 89 108 L 69 108 Z M 69 64 " clip-rule="nonzero"/></clipPath><clipPath id="64e82b4fc7"><path d="M 69.867188 106.179688 L 85.53125 64.542969 L 88.304688 65.585938 L 72.640625 107.222656 Z M 69.867188 106.179688 " clip-rule="nonzero"/></clipPath><clipPath id="9222bbb163"><path d="M 0.847656 0.324219 L 19.527344 0.324219 L 19.527344 43.425781 L 0.847656 43.425781 Z M 0.847656 0.324219 " clip-rule="nonzero"/></clipPath><clipPath id="f8679cc60e"><path d="M 0.867188 42.179688 L 16.53125 0.542969 L 19.304688 1.585938 L 3.640625 43.222656 Z M 0.867188 42.179688 " clip-rule="nonzero"/></clipPath><clipPath id="88c3c1aade"><rect x="0" width="20" y="0" height="44"/></clipPath><clipPath id="db783b1c17"><path d="M 57 75 L 100 75 L 100 97 L 57 97 Z M 57 75 " clip-rule="nonzero"/></clipPath><clipPath id="c051491faa"><path d="M 57.65625 93.953125 L 98.175781 75.585938 L 99.398438 78.285156 L 58.882812 96.652344 Z M 57.65625 93.953125 " clip-rule="nonzero"/></clipPath><clipPath id="3ede0b0ea2"><path d="M 0.636719 0.578125 L 42.542969 0.578125 L 42.542969 21.886719 L 0.636719 21.886719 Z M 0.636719 0.578125 " clip-rule="nonzero"/></clipPath><clipPath id="5dcc3112e2"><path d="M 0.65625 18.953125 L 41.175781 0.585938 L 42.398438 3.285156 L 1.882812 21.652344 Z M 0.65625 18.953125 " clip-rule="nonzero"/></clipPath><clipPath id="9a1f1409ef"><rect x="0" width="43" y="0" height="22"/></clipPath><clipPath id="2cdca432e9"><path d="M 68 64 L 90 64 L 90 107 L 68 107 Z M 68 64 " clip-rule="nonzero"/></clipPath><clipPath id="8757231273"><path d="M 86.953125 106.664062 L 68.585938 66.144531 L 71.285156 64.921875 L 89.652344 105.441406 Z M 86.953125 106.664062 " clip-rule="nonzero"/></clipPath><clipPath id="dab2edcf76"><path d="M 0.414062 0.800781 L 21.722656 0.800781 L 21.722656 42.707031 L 0.414062 42.707031 Z M 0.414062 0.800781 " clip-rule="nonzero"/></clipPath><clipPath id="c30248b9fc"><path d="M 18.953125 42.664062 L 0.585938 2.144531 L 3.285156 0.921875 L 21.652344 41.441406 Z M 18.953125 42.664062 " clip-rule="nonzero"/></clipPath><clipPath id="5737919713"><rect x="0" width="22" y="0" height="43"/></clipPath><clipPath id="f4466fcc5a"><path d="M 1 0.148438 L 58 0.148438 L 58 134 L 1 134 Z M 1 0.148438 " clip-rule="nonzero"/></clipPath><clipPath id="5a5506f428"><path d="M 50.34375 0.148438 L 57.933594 3.003906 L 8.714844 133.84375 L 1.125 130.988281 Z M 50.34375 0.148438 " clip-rule="nonzero"/></clipPath><clipPath id="36bd59c50d"><path d="M 0.125 0.148438 L 57 0.148438 L 57 134 L 0.125 134 Z M 0.125 0.148438 " clip-rule="nonzero"/></clipPath><clipPath id="631524c630"><path d="M 49.34375 0.148438 L 56.933594 3.003906 L 7.714844 133.84375 L 0.125 130.988281 Z M 49.34375 0.148438 " clip-rule="nonzero"/></clipPath><clipPath id="c01ba9a738"><rect x="0" width="57" y="0" height="134"/></clipPath><clipPath id="f84e490d3c"><path d="M 99 37 L 156 37 L 156 170.878906 L 99 170.878906 Z M 99 37 " clip-rule="nonzero"/></clipPath><clipPath id="a6c0b2713a"><path d="M 148.257812 37.125 L 155.84375 39.980469 L 106.625 170.816406 L 99.039062 167.964844 Z M 148.257812 37.125 " clip-rule="nonzero"/></clipPath><clipPath id="efec53fe3a"><path d="M 0 0.0234375 L 57 0.0234375 L 57 133.878906 L 0 133.878906 Z M 0 0.0234375 " clip-rule="nonzero"/></clipPath><clipPath id="2fcbb3885a"><path d="M 49.257812 0.125 L 56.84375 2.980469 L 7.625 133.816406 L 0.0390625 130.964844 Z M 49.257812 0.125 " clip-rule="nonzero"/></clipPath><clipPath id="9227ef32cd"><rect x="0" width="57" y="0" height="134"/></clipPath><clipPath id="a5525f865a"><rect x="0" width="157" y="0" height="171"/></clipPath><clipPath id="bf99cc765f"><path d="M 0 62 L 170 62 L 170 240.351562 L 0 240.351562 Z M 0 62 " clip-rule="nonzero"/></clipPath><clipPath id="050bcc3351"><path d="M 39 58 L 131 58 L 131 121 L 39 121 Z M 39 58 " clip-rule="nonzero"/></clipPath><clipPath id="7dac918697"><path d="M 45.972656 120.363281 L 39.640625 109.875 L 124.207031 58.816406 L 130.539062 69.300781 Z M 45.972656 120.363281 " clip-rule="nonzero"/></clipPath><clipPath id="d023cb5e89"><path d="M 0.511719 0.59375 L 91.742188 0.59375 L 91.742188 62.375 L 0.511719 62.375 Z M 0.511719 0.59375 " clip-rule="nonzero"/></clipPath><clipPath id="8aa5079058"><path d="M 6.972656 62.363281 L 0.640625 51.875 L 85.207031 0.816406 L 91.539062 11.300781 Z M 6.972656 62.363281 " clip-rule="nonzero"/></clipPath><clipPath id="5514240d8c"><rect x="0" width="92" y="0" height="63"/></clipPath><clipPath id="e4068e451e"><path d="M 58 62 L 112 62 L 112 116 L 58 116 Z M 58 62 " clip-rule="nonzero"/></clipPath><clipPath id="abb64521d0"><path d="M 48.75 80.132812 L 93.765625 52.953125 L 120.945312 97.96875 L 75.929688 125.148438 Z M 48.75 80.132812 " clip-rule="nonzero"/></clipPath><clipPath id="898b88e86d"><path d="M 71.257812 66.542969 C 58.828125 74.046875 54.835938 90.210938 62.339844 102.640625 C 69.84375 115.070312 86.007812 119.0625 98.4375 111.558594 C 110.867188 104.054688 114.859375 87.890625 107.355469 75.460938 C 99.851562 63.03125 83.6875 59.035156 71.257812 66.542969 Z M 71.257812 66.542969 " clip-rule="nonzero"/></clipPath><clipPath id="326ab3c0c7"><path d="M 0 0 L 54 0 L 54 54 L 0 54 Z M 0 0 " clip-rule="nonzero"/></clipPath><clipPath id="2b230f29de"><path d="M -9.25 18.132812 L 35.765625 -9.046875 L 62.945312 35.96875 L 17.929688 63.148438 Z M -9.25 18.132812 " clip-rule="nonzero"/></clipPath><clipPath id="a3d0861620"><path d="M 13.257812 4.542969 C 0.828125 12.046875 -3.164062 28.210938 4.339844 40.640625 C 11.84375 53.070312 28.007812 57.0625 40.4375 49.558594 C 52.867188 42.054688 56.859375 25.890625 49.355469 13.460938 C 41.851562 1.03125 25.6875 -2.964844 13.257812 4.542969 Z M 13.257812 4.542969 " clip-rule="nonzero"/></clipPath><clipPath id="1070bcbb6b"><rect x="0" width="54" y="0" height="54"/></clipPath><clipPath id="7a0e64a9c6"><path d="M 61 66 L 108 66 L 108 113 L 61 113 Z M 61 66 " clip-rule="nonzero"/></clipPath><clipPath id="ef1c77f42c"><path d="M 53.378906 81.421875 L 92.753906 57.652344 L 116.523438 97.023438 L 77.152344 120.796875 Z M 53.378906 81.421875 " clip-rule="nonzero"/></clipPath><clipPath id="f0d4fae3e8"><path d="M 73.066406 69.539062 C 62.195312 76.101562 58.703125 90.238281 65.265625 101.109375 C 71.832031 111.984375 85.964844 115.476562 96.839844 108.910156 C 107.710938 102.347656 111.203125 88.210938 104.640625 77.335938 C 98.074219 66.464844 83.9375 62.972656 73.066406 69.539062 Z M 73.066406 69.539062 " clip-rule="nonzero"/></clipPath><clipPath id="71a30760a9"><path d="M 0 0 L 47 0 L 47 47 L 0 47 Z M 0 0 " clip-rule="nonzero"/></clipPath><clipPath id="2864b177df"><path d="M -7.621094 15.421875 L 31.753906 -8.347656 L 55.523438 31.023438 L 16.152344 54.796875 Z M -7.621094 15.421875 " clip-rule="nonzero"/></clipPath><clipPath id="7cdf12ffdf"><path d="M 12.066406 3.539062 C 1.195312 10.101562 -2.296875 24.238281 4.265625 35.109375 C 10.832031 45.984375 24.964844 49.476562 35.839844 42.910156 C 46.710938 36.347656 50.203125 22.210938 43.640625 11.335938 C 37.074219 0.464844 22.9375 -3.027344 12.066406 3.539062 Z M 12.066406 3.539062 " clip-rule="nonzero"/></clipPath><clipPath id="24f4cec8e9"><rect x="0" width="47" y="0" height="47"/></clipPath><clipPath id="c9a89ef7ea"><path d="M 64 68 L 107 68 L 107 111 L 64 111 Z M 64 68 " clip-rule="nonzero"/></clipPath><clipPath id="72b538f7f6"><path d="M 56.253906 82.175781 L 92.160156 60.492188 L 113.84375 96.402344 L 77.933594 118.082031 Z M 56.253906 82.175781 " clip-rule="nonzero"/></clipPath><clipPath id="51740c8f11"><path d="M 74.207031 71.332031 C 64.292969 77.320312 61.105469 90.214844 67.09375 100.128906 C 73.082031 110.046875 85.972656 113.230469 95.886719 107.242188 C 105.804688 101.257812 108.988281 88.363281 103.003906 78.449219 C 97.015625 68.53125 84.125 65.347656 74.207031 71.332031 Z M 74.207031 71.332031 " clip-rule="nonzero"/></clipPath><clipPath id="e690887dc8"><path d="M 0 0 L 43 0 L 43 43 L 0 43 Z M 0 0 " clip-rule="nonzero"/></clipPath><clipPath id="15b7e782f5"><path d="M -7.746094 14.175781 L 28.160156 -7.507812 L 49.84375 28.402344 L 13.933594 50.082031 Z M -7.746094 14.175781 " clip-rule="nonzero"/></clipPath><clipPath id="66c7e419f7"><path d="M 10.207031 3.332031 C 0.292969 9.320312 -2.894531 22.214844 3.09375 32.128906 C 9.082031 42.046875 21.972656 45.230469 31.886719 39.242188 C 41.804688 33.257812 44.988281 20.363281 39.003906 10.449219 C 33.015625 0.53125 20.125 -2.652344 10.207031 3.332031 Z M 10.207031 3.332031 " clip-rule="nonzero"/></clipPath><clipPath id="70590543a5"><rect x="0" width="43" y="0" height="43"/></clipPath><clipPath id="297a01be02"><path d="M 75 79 L 96 79 L 96 100 L 75 100 Z M 75 79 " clip-rule="nonzero"/></clipPath><clipPath id="ab1cfa15e0"><path d="M 72.21875 86.402344 L 88.816406 76.378906 L 98.839844 92.976562 L 82.242188 103 Z M 72.21875 86.402344 " clip-rule="nonzero"/></clipPath><clipPath id="b76aedd850"><path d="M 80.519531 81.390625 C 75.933594 84.15625 74.464844 90.117188 77.230469 94.699219 C 79.996094 99.285156 85.957031 100.757812 90.539062 97.988281 C 95.125 95.222656 96.597656 89.261719 93.828125 84.679688 C 91.0625 80.09375 85.101562 78.621094 80.519531 81.390625 Z M 80.519531 81.390625 " clip-rule="nonzero"/></clipPath><clipPath id="3b32f30c11"><path d="M 0 0 L 21 0 L 21 21 L 0 21 Z M 0 0 " clip-rule="nonzero"/></clipPath><clipPath id="333b66dffa"><path d="M -2.78125 7.402344 L 13.816406 -2.621094 L 23.839844 13.976562 L 7.242188 24 Z M -2.78125 7.402344 " clip-rule="nonzero"/></clipPath><clipPath id="5eb9560756"><path d="M 5.519531 2.390625 C 0.933594 5.15625 -0.535156 11.117188 2.230469 15.699219 C 4.996094 20.285156 10.957031 21.757812 15.539062 18.988281 C 20.125 16.222656 21.597656 10.261719 18.828125 5.679688 C 16.0625 1.09375 10.101562 -0.378906 5.519531 2.390625 Z M 5.519531 2.390625 " clip-rule="nonzero"/></clipPath><clipPath id="178ac157d3"><rect x="0" width="21" y="0" height="21"/></clipPath><clipPath id="576dc5fcb7"><path d="M 65 76 L 105 76 L 105 102 L 65 102 Z M 65 76 " clip-rule="nonzero"/></clipPath><clipPath id="e33ca66fb0"><path d="M 65.351562 99.449219 L 103.433594 76.457031 L 104.964844 78.992188 L 66.882812 101.984375 Z M 65.351562 99.449219 " clip-rule="nonzero"/></clipPath><clipPath id="41659be9ce"><path d="M 0.132812 0.3125 L 40 0.3125 L 40 26 L 0.132812 26 Z M 0.132812 0.3125 " clip-rule="nonzero"/></clipPath><clipPath id="bcb91a17a3"><path d="M 0.351562 23.449219 L 38.433594 0.457031 L 39.964844 2.992188 L 1.882812 25.984375 Z M 0.351562 23.449219 " clip-rule="nonzero"/></clipPath><clipPath id="d957b28330"><rect x="0" width="40" y="0" height="26"/></clipPath><clipPath id="c8819dc45d"><path d="M 72 69 L 98 69 L 98 109 L 72 109 Z M 72 69 " clip-rule="nonzero"/></clipPath><clipPath id="f8253440d5"><path d="M 95.34375 108.808594 L 72.347656 70.726562 L 74.886719 69.195312 L 97.878906 107.277344 Z M 95.34375 108.808594 " clip-rule="nonzero"/></clipPath><clipPath id="4a723b892b"><path d="M 0.316406 0.128906 L 25.9375 0.128906 L 25.9375 39.878906 L 0.316406 39.878906 Z M 0.316406 0.128906 " clip-rule="nonzero"/></clipPath><clipPath id="8b6de6a359"><path d="M 23.34375 39.808594 L 0.347656 1.726562 L 2.886719 0.195312 L 25.878906 38.277344 Z M 23.34375 39.808594 " clip-rule="nonzero"/></clipPath><clipPath id="e59e92b29f"><rect x="0" width="26" y="0" height="40"/></clipPath><clipPath id="c68ef75cb5"><path d="M 78 67 L 92 67 L 92 112 L 78 112 Z M 78 67 " clip-rule="nonzero"/></clipPath><clipPath id="c930b20c2f"><path d="M 78.179688 110.824219 L 88.851562 67.636719 L 91.726562 68.347656 L 81.058594 111.535156 Z M 78.179688 110.824219 " clip-rule="nonzero"/></clipPath><clipPath id="3db70fb82a"><path d="M 0.0625 0.453125 L 13.949219 0.453125 L 13.949219 44.753906 L 0.0625 44.753906 Z M 0.0625 0.453125 " clip-rule="nonzero"/></clipPath><clipPath id="0c4703ef33"><path d="M 0.179688 43.824219 L 10.851562 0.636719 L 13.726562 1.347656 L 3.058594 44.535156 Z M 0.179688 43.824219 " clip-rule="nonzero"/></clipPath><clipPath id="e9fecd351a"><rect x="0" width="14" y="0" height="45"/></clipPath><clipPath id="ab2dd9ba99"><path d="M 63 82 L 108 82 L 108 96 L 63 96 Z M 63 82 " clip-rule="nonzero"/></clipPath><clipPath id="5db4500e09"><path d="M 106.300781 95.691406 L 63.117188 85.023438 L 63.828125 82.144531 L 107.011719 92.816406 Z M 106.300781 95.691406 " clip-rule="nonzero"/></clipPath><clipPath id="ea1392827c"><path d="M 0 0.0625 L 44.035156 0.0625 L 44.035156 13.710938 L 0 13.710938 Z M 0 0.0625 " clip-rule="nonzero"/></clipPath><clipPath id="e1c150e9db"><path d="M 43.300781 13.691406 L 0.117188 3.023438 L 0.828125 0.144531 L 44.011719 10.816406 Z M 43.300781 13.691406 " clip-rule="nonzero"/></clipPath><clipPath id="c14e5d5474"><rect x="0" width="45" y="0" height="14"/></clipPath><clipPath id="b717b83bd0"><path d="M 0 54 L 80 54 L 80 178.320312 L 0 178.320312 Z M 0 54 " clip-rule="nonzero"/></clipPath><clipPath id="9a15a94bec"><path d="M 0 58.476562 L 6.941406 54.285156 L 79.191406 173.957031 L 72.253906 178.144531 Z M 0 58.476562 " clip-rule="nonzero"/></clipPath><clipPath id="cf88afb709"><path d="M 0 0.285156 L 79.257812 0.285156 L 79.257812 124.320312 L 0 124.320312 Z M 0 0.285156 " clip-rule="nonzero"/></clipPath><clipPath id="ba36463314"><path d="M 0 4.476562 L 6.941406 0.285156 L 79.191406 119.957031 L 72.253906 124.144531 Z M 0 4.476562 " clip-rule="nonzero"/></clipPath><clipPath id="878beb7359"><rect x="0" width="80" y="0" height="125"/></clipPath><clipPath id="28b4d727c6"><path d="M 89 0.167969 L 169 0.167969 L 169 125 L 89 125 Z M 89 0.167969 " clip-rule="nonzero"/></clipPath><clipPath id="e152cf00d7"><path d="M 89.664062 4.496094 L 96.605469 0.304688 L 168.855469 119.972656 L 161.917969 124.164062 Z M 89.664062 4.496094 " clip-rule="nonzero"/></clipPath><clipPath id="580933452c"><path d="M 0.554688 0.167969 L 80 0.167969 L 80 124.203125 L 0.554688 124.203125 Z M 0.554688 0.167969 " clip-rule="nonzero"/></clipPath><clipPath id="307fb4d97f"><path d="M 0.664062 4.496094 L 7.605469 0.304688 L 79.855469 119.972656 L 72.917969 124.164062 Z M 0.664062 4.496094 " clip-rule="nonzero"/></clipPath><clipPath id="4165b4fa34"><rect x="0" width="80" y="0" height="125"/></clipPath><clipPath id="4dbfd18963"><rect x="0" width="170" y="0" height="179"/></clipPath></defs><g clip-path="url(#698a340f8e)"><g transform="matrix(1, 0, 0, 1, 172, -0.000000000000022066)"><g clip-path="url(#a5525f865a)"><g clip-path="url(#0a96cc6cee)"><g clip-path="url(#e0e171f797)"><g transform="matrix(1, 0, 0, 1, 30, 63)"><g clip-path="url(#df87eef7cb)"><g clip-path="url(#36ce5a0347)"><g clip-path="url(#3bb16144e1)"><path fill="#737373" d="M 0.222656 11.570312 L 4.535156 0.105469 L 96.980469 34.878906 L 92.667969 46.347656 Z M 0.222656 11.570312 " fill-opacity="1" fill-rule="nonzero"/></g></g></g></g></g></g><g clip-path="url(#06eef91cfa)"><g clip-path="url(#7be85042ec)"><g clip-path="url(#72c6311671)"><g transform="matrix(1, 0, 0, 1, 52, 59)"><g clip-path="url(#d1ebfd6bff)"><g clip-path="url(#9a0f7d1103)"><g clip-path="url(#ee517ab53a)"><g clip-path="url(#0d0ac8a59c)"><path fill="#737373" d="M 11.53125 -7.164062 L 60.75 11.351562 L 42.234375 60.570312 L -6.984375 42.054688 Z M 11.53125 -7.164062 " fill-opacity="1" fill-rule="nonzero"/></g></g></g></g></g></g></g></g><g clip-path="url(#15cfe38d91)"><g clip-path="url(#48e1b3f3c8)"><g clip-path="url(#48953de7e0)"><g transform="matrix(1, 0, 0, 1, 55, 62)"><g clip-path="url(#62d4b650fe)"><g clip-path="url(#753d7cb70c)"><g clip-path="url(#5e38b6919e)"><g clip-path="url(#57553663ed)"><path fill="#000000" d="M 10.382812 -5.726562 L 53.433594 10.46875 L 37.238281 53.515625 L -5.808594 37.320312 Z M 10.382812 -5.726562 " fill-opacity="1" fill-rule="nonzero"/></g></g></g></g></g></g></g></g><g clip-path="url(#59f1c81f26)"><g clip-path="url(#a578e8b95f)"><g clip-path="url(#ed35d33d29)"><g transform="matrix(1, 0, 0, 1, 57, 65)"><g clip-path="url(#8b5469a0c7)"><g clip-path="url(#eac175322d)"><g clip-path="url(#61d1ad34ff)"><g clip-path="url(#79ab20bc75)"><path fill="#737373" d="M 9.574219 -6.007812 L 48.835938 8.761719 L 34.066406 48.023438 L -5.195312 33.253906 Z M 9.574219 -6.007812 " fill-opacity="1" fill-rule="nonzero"/></g></g></g></g></g></g></g></g><g clip-path="url(#4db281bff5)"><g clip-path="url(#7fd0dec7ac)"><g clip-path="url(#1a0f5088d8)"><g transform="matrix(1, 0, 0, 1, 69, 76)"><g clip-path="url(#359fa60569)"><g clip-path="url(#1d6273590e)"><g clip-path="url(#0eed6d3e72)"><g clip-path="url(#f6056bb1e7)"><path fill="#000000" d="M 4.140625 -1.851562 L 22.289062 4.976562 L 15.464844 23.121094 L -2.683594 16.296875 Z M 4.140625 -1.851562 " fill-opacity="1" fill-rule="nonzero"/></g></g></g></g></g></g></g></g><g clip-path="url(#d6b97e749a)"><g clip-path="url(#ea496824dd)"><g transform="matrix(1, 0, 0, 1, 57, 76)"><g clip-path="url(#cb1c6616b8)"><g clip-path="url(#2073417d11)"><g clip-path="url(#dee939ff17)"><path fill="#000000" d="M 1.644531 0.835938 L 43.285156 16.5 L 42.238281 19.273438 L 0.601562 3.609375 Z M 1.644531 0.835938 " fill-opacity="1" fill-rule="nonzero"/></g></g></g></g></g></g><g clip-path="url(#2a1bef98d5)"><g clip-path="url(#64e82b4fc7)"><g transform="matrix(1, 0, 0, 1, 69, 64)"><g clip-path="url(#88c3c1aade)"><g clip-path="url(#9222bbb163)"><g clip-path="url(#f8679cc60e)"><path fill="#000000" d="M 0.867188 42.179688 L 16.53125 0.539062 L 19.304688 1.582031 L 3.640625 43.222656 Z M 0.867188 42.179688 " fill-opacity="1" fill-rule="nonzero"/></g></g></g></g></g></g><g clip-path="url(#db783b1c17)"><g clip-path="url(#c051491faa)"><g transform="matrix(1, 0, 0, 1, 57, 75)"><g clip-path="url(#9a1f1409ef)"><g clip-path="url(#3ede0b0ea2)"><g clip-path="url(#5dcc3112e2)"><path fill="#000000" d="M 0.65625 18.953125 L 41.175781 0.585938 L 42.402344 3.28125 L 1.882812 21.652344 Z M 0.65625 18.953125 " fill-opacity="1" fill-rule="nonzero"/></g></g></g></g></g></g><g clip-path="url(#2cdca432e9)"><g clip-path="url(#8757231273)"><g transform="matrix(1, 0, 0, 1, 68, 64)"><g clip-path="url(#5737919713)"><g clip-path="url(#dab2edcf76)"><g clip-path="url(#c30248b9fc)"><path fill="#000000" d="M 18.953125 42.664062 L 0.585938 2.144531 L 3.285156 0.921875 L 21.652344 41.441406 Z M 18.953125 42.664062 " fill-opacity="1" fill-rule="nonzero"/></g></g></g></g></g></g><g clip-path="url(#f4466fcc5a)"><g clip-path="url(#5a5506f428)"><g transform="matrix(1, 0, 0, 1, 1, -0.000000000000022066)"><g clip-path="url(#c01ba9a738)"><g clip-path="url(#36bd59c50d)"><g clip-path="url(#631524c630)"><path fill="#545454" d="M 49.34375 0.148438 L 56.933594 3.003906 L 7.710938 133.851562 L 0.125 130.996094 Z M 49.34375 0.148438 " fill-opacity="1" fill-rule="nonzero"/></g></g></g></g></g></g><g clip-path="url(#f84e490d3c)"><g clip-path="url(#a6c0b2713a)"><g transform="matrix(1, 0, 0, 1, 99, 37)"><g clip-path="url(#9227ef32cd)"><g clip-path="url(#efec53fe3a)"><g clip-path="url(#2fcbb3885a)"><path fill="#545454" d="M 49.257812 0.125 L 56.84375 2.980469 L 7.621094 133.824219 L 0.0351562 130.972656 Z M 49.257812 0.125 " fill-opacity="1" fill-rule="nonzero"/></g></g></g></g></g></g></g></g></g><g clip-path="url(#bf99cc765f)"><g transform="matrix(1, 0, 0, 1, 0, 62)"><g clip-path="url(#4dbfd18963)"><g clip-path="url(#050bcc3351)"><g clip-path="url(#7dac918697)"><g transform="matrix(1, 0, 0, 1, 39, 58)"><g clip-path="url(#5514240d8c)"><g clip-path="url(#d023cb5e89)"><g clip-path="url(#8aa5079058)"><path fill="#737373" d="M 6.972656 62.363281 L 0.640625 51.875 L 85.195312 0.824219 L 91.527344 11.3125 Z M 6.972656 62.363281 " fill-opacity="1" fill-rule="nonzero"/></g></g></g></g></g></g><g clip-path="url(#e4068e451e)"><g clip-path="url(#abb64521d0)"><g clip-path="url(#898b88e86d)"><g transform="matrix(1, 0, 0, 1, 58, 62)"><g clip-path="url(#1070bcbb6b)"><g clip-path="url(#326ab3c0c7)"><g clip-path="url(#2b230f29de)"><g clip-path="url(#a3d0861620)"><path fill="#737373" d="M -9.25 18.132812 L 35.765625 -9.046875 L 62.945312 35.96875 L 17.929688 63.148438 Z M -9.25 18.132812 " fill-opacity="1" fill-rule="nonzero"/></g></g></g></g></g></g></g></g><g clip-path="url(#7a0e64a9c6)"><g clip-path="url(#ef1c77f42c)"><g clip-path="url(#f0d4fae3e8)"><g transform="matrix(1, 0, 0, 1, 61, 66)"><g clip-path="url(#24f4cec8e9)"><g clip-path="url(#71a30760a9)"><g clip-path="url(#2864b177df)"><g clip-path="url(#7cdf12ffdf)"><path fill="#000000" d="M -7.621094 15.421875 L 31.753906 -8.347656 L 55.523438 31.023438 L 16.152344 54.796875 Z M -7.621094 15.421875 " fill-opacity="1" fill-rule="nonzero"/></g></g></g></g></g></g></g></g><g clip-path="url(#c9a89ef7ea)"><g clip-path="url(#72b538f7f6)"><g clip-path="url(#51740c8f11)"><g transform="matrix(1, 0, 0, 1, 64, 68)"><g clip-path="url(#70590543a5)"><g clip-path="url(#e690887dc8)"><g clip-path="url(#15b7e782f5)"><g clip-path="url(#66c7e419f7)"><path fill="#737373" d="M -7.746094 14.175781 L 28.160156 -7.507812 L 49.84375 28.402344 L 13.933594 50.082031 Z M -7.746094 14.175781 " fill-opacity="1" fill-rule="nonzero"/></g></g></g></g></g></g></g></g><g clip-path="url(#297a01be02)"><g clip-path="url(#ab1cfa15e0)"><g clip-path="url(#b76aedd850)"><g transform="matrix(1, 0, 0, 1, 75, 79)"><g clip-path="url(#178ac157d3)"><g clip-path="url(#3b32f30c11)"><g clip-path="url(#333b66dffa)"><g clip-path="url(#5eb9560756)"><path fill="#000000" d="M -2.78125 7.402344 L 13.816406 -2.621094 L 23.839844 13.976562 L 7.242188 24 Z M -2.78125 7.402344 " fill-opacity="1" fill-rule="nonzero"/></g></g></g></g></g></g></g></g><g clip-path="url(#576dc5fcb7)"><g clip-path="url(#e33ca66fb0)"><g transform="matrix(1, 0, 0, 1, 65, 76)"><g clip-path="url(#d957b28330)"><g clip-path="url(#41659be9ce)"><g clip-path="url(#bcb91a17a3)"><path fill="#000000" d="M 0.351562 23.449219 L 38.4375 0.457031 L 39.96875 2.992188 L 1.882812 25.984375 Z M 0.351562 23.449219 " fill-opacity="1" fill-rule="nonzero"/></g></g></g></g></g></g><g clip-path="url(#c8819dc45d)"><g clip-path="url(#f8253440d5)"><g transform="matrix(1, 0, 0, 1, 72, 69)"><g clip-path="url(#e59e92b29f)"><g clip-path="url(#4a723b892b)"><g clip-path="url(#8b6de6a359)"><path fill="#000000" d="M 23.34375 39.808594 L 0.347656 1.722656 L 2.882812 0.191406 L 25.878906 38.277344 Z M 23.34375 39.808594 " fill-opacity="1" fill-rule="nonzero"/></g></g></g></g></g></g><g clip-path="url(#c68ef75cb5)"><g clip-path="url(#c930b20c2f)"><g transform="matrix(1, 0, 0, 1, 78, 67)"><g clip-path="url(#e9fecd351a)"><g clip-path="url(#3db70fb82a)"><g clip-path="url(#0c4703ef33)"><path fill="#000000" d="M 0.179688 43.824219 L 10.851562 0.632812 L 13.726562 1.34375 L 3.058594 44.535156 Z M 0.179688 43.824219 " fill-opacity="1" fill-rule="nonzero"/></g></g></g></g></g></g><g clip-path="url(#ab2dd9ba99)"><g clip-path="url(#5db4500e09)"><g transform="matrix(1, 0, 0, 1, 63, 82)"><g clip-path="url(#c14e5d5474)"><g clip-path="url(#ea1392827c)"><g clip-path="url(#e1c150e9db)"><path fill="#000000" d="M 43.300781 13.691406 L 0.113281 3.023438 L 0.824219 0.144531 L 44.011719 10.816406 Z M 43.300781 13.691406 " fill-opacity="1" fill-rule="nonzero"/></g></g></g></g></g></g><g clip-path="url(#b717b83bd0)"><g clip-path="url(#9a15a94bec)"><g transform="matrix(1, 0, 0, 1, 0, 54)"><g clip-path="url(#878beb7359)"><g clip-path="url(#cf88afb709)"><g clip-path="url(#ba36463314)"><path fill="#545454" d="M 0 4.476562 L 6.941406 0.285156 L 79.199219 119.964844 L 72.257812 124.152344 Z M 0 4.476562 " fill-opacity="1" fill-rule="nonzero"/></g></g></g></g></g></g><g clip-path="url(#28b4d727c6)"><g clip-path="url(#e152cf00d7)"><g transform="matrix(1, 0, 0, 1, 89, -0.000000000000021316)"><g clip-path="url(#4165b4fa34)"><g clip-path="url(#580933452c)"><g clip-path="url(#307fb4d97f)"><path fill="#545454" d="M 0.664062 4.496094 L 7.605469 0.304688 L 79.863281 119.980469 L 72.921875 124.171875 Z M 0.664062 4.496094 " fill-opacity="1" fill-rule="nonzero"/></g></g></g></g></g></g></g></g></g></svg>