<svg xmlns="http://www.w3.org/2000/svg" xmlns:xlink="http://www.w3.org/1999/xlink" width="226" zoomAndPan="magnify" viewBox="0 0 169.5 178.499993" height="238" preserveAspectRatio="xMidYMid meet" version="1.0"><defs><clipPath id="a8de01be5e"><path d="M 0 0.0117188 L 169 0.0117188 L 169 177.988281 L 0 177.988281 Z M 0 0.0117188 " clip-rule="nonzero"/></clipPath><clipPath id="a0809891eb"><path d="M 39 58 L 131 58 L 131 121 L 39 121 Z M 39 58 " clip-rule="nonzero"/></clipPath><clipPath id="898f62e4c5"><path d="M 45.941406 120.101562 L 39.613281 109.621094 L 124.125 58.597656 L 130.453125 69.074219 Z M 45.941406 120.101562 " clip-rule="nonzero"/></clipPath><clipPath id="13e32c5197"><path d="M 0.484375 0.402344 L 91.65625 0.402344 L 91.65625 62.140625 L 0.484375 62.140625 Z M 0.484375 0.402344 " clip-rule="nonzero"/></clipPath><clipPath id="ce6ff80066"><path d="M 6.941406 62.101562 L 0.613281 51.621094 L 85.125 0.597656 L 91.453125 11.074219 Z M 6.941406 62.101562 " clip-rule="nonzero"/></clipPath><clipPath id="04d4db889f"><rect x="0" width="92" y="0" height="63"/></clipPath><clipPath id="2b5b8f15d8"><path d="M 58 62 L 112 62 L 112 116 L 58 116 Z M 58 62 " clip-rule="nonzero"/></clipPath><clipPath id="1bf6be77a1"><path d="M 48.71875 79.898438 L 93.703125 52.738281 L 120.863281 97.722656 L 75.878906 124.882812 Z M 48.71875 79.898438 " clip-rule="nonzero"/></clipPath><clipPath id="fb3b791337"><path d="M 71.210938 66.316406 C 58.789062 73.816406 54.796875 89.96875 62.296875 102.390625 C 69.796875 114.8125 85.949219 118.804688 98.371094 111.304688 C 110.792969 103.804688 114.785156 87.652344 107.285156 75.230469 C 99.785156 62.808594 83.632812 58.816406 71.210938 66.316406 Z M 71.210938 66.316406 " clip-rule="nonzero"/></clipPath><clipPath id="a6ef464fa5"><path d="M 0 0 L 54 0 L 54 54 L 0 54 Z M 0 0 " clip-rule="nonzero"/></clipPath><clipPath id="6fa20751e8"><path d="M -9.28125 17.898438 L 35.703125 -9.261719 L 62.863281 35.722656 L 17.878906 62.882812 Z M -9.28125 17.898438 " clip-rule="nonzero"/></clipPath><clipPath id="e441435283"><path d="M 13.210938 4.316406 C 0.789062 11.816406 -3.203125 27.96875 4.296875 40.390625 C 11.796875 52.8125 27.949219 56.804688 40.371094 49.304688 C 52.792969 41.804688 56.785156 25.652344 49.285156 13.230469 C 41.785156 0.808594 25.632812 -3.183594 13.210938 4.316406 Z M 13.210938 4.316406 " clip-rule="nonzero"/></clipPath><clipPath id="4f50b672bc"><rect x="0" width="54" y="0" height="54"/></clipPath><clipPath id="ec6ffab928"><path d="M 61 66 L 108 66 L 108 112 L 61 112 Z M 61 66 " clip-rule="nonzero"/></clipPath><clipPath id="7973dc2670"><path d="M 53.34375 81.1875 L 92.691406 57.433594 L 116.445312 96.777344 L 77.101562 120.535156 Z M 53.34375 81.1875 " clip-rule="nonzero"/></clipPath><clipPath id="1a25f2d16e"><path d="M 73.015625 69.3125 C 62.152344 75.871094 58.664062 89.996094 65.222656 100.863281 C 71.78125 111.726562 85.910156 115.21875 96.773438 108.65625 C 107.640625 102.097656 111.128906 87.972656 104.570312 77.105469 C 98.007812 66.242188 83.882812 62.75 73.015625 69.3125 Z M 73.015625 69.3125 " clip-rule="nonzero"/></clipPath><clipPath id="fef3f73589"><path d="M 0 0 L 47 0 L 47 46 L 0 46 Z M 0 0 " clip-rule="nonzero"/></clipPath><clipPath id="1f675fa68a"><path d="M -7.65625 15.1875 L 31.691406 -8.566406 L 55.445312 30.777344 L 16.101562 54.535156 Z M -7.65625 15.1875 " clip-rule="nonzero"/></clipPath><clipPath id="72d2d69153"><path d="M 12.015625 3.3125 C 1.152344 9.871094 -2.335938 23.996094 4.222656 34.863281 C 10.78125 45.726562 24.910156 49.21875 35.773438 42.65625 C 46.640625 36.097656 50.128906 21.972656 43.570312 11.105469 C 37.007812 0.242188 22.882812 -3.25 12.015625 3.3125 Z M 12.015625 3.3125 " clip-rule="nonzero"/></clipPath><clipPath id="b5a6e4e199"><rect x="0" width="47" y="0" height="46"/></clipPath><clipPath id="48cd473981"><path d="M 64 68 L 106 68 L 106 111 L 64 111 Z M 64 68 " clip-rule="nonzero"/></clipPath><clipPath id="a9a807209f"><path d="M 56.214844 81.9375 L 92.101562 60.273438 L 113.765625 96.15625 L 77.882812 117.824219 Z M 56.214844 81.9375 " clip-rule="nonzero"/></clipPath><clipPath id="1271e934cc"><path d="M 74.15625 71.105469 C 64.25 77.089844 61.066406 89.972656 67.046875 99.882812 C 73.03125 109.792969 85.914062 112.972656 95.824219 106.992188 C 105.734375 101.007812 108.917969 88.125 102.933594 78.214844 C 96.949219 68.304688 84.066406 65.121094 74.15625 71.105469 Z M 74.15625 71.105469 " clip-rule="nonzero"/></clipPath><clipPath id="118534e5c0"><path d="M 0 0 L 42 0 L 42 43 L 0 43 Z M 0 0 " clip-rule="nonzero"/></clipPath><clipPath id="ee1e9a95be"><path d="M -7.785156 13.9375 L 28.101562 -7.726562 L 49.765625 28.15625 L 13.882812 49.824219 Z M -7.785156 13.9375 " clip-rule="nonzero"/></clipPath><clipPath id="6b30d40b20"><path d="M 10.15625 3.105469 C 0.25 9.089844 -2.933594 21.972656 3.046875 31.882812 C 9.03125 41.792969 21.914062 44.972656 31.824219 38.992188 C 41.734375 33.007812 44.917969 20.125 38.933594 10.214844 C 32.949219 0.304688 20.066406 -2.878906 10.15625 3.105469 Z M 10.15625 3.105469 " clip-rule="nonzero"/></clipPath><clipPath id="c602e01a13"><rect x="0" width="42" y="0" height="43"/></clipPath><clipPath id="d95da8ae73"><path d="M 75 79 L 96 79 L 96 100 L 75 100 Z M 75 79 " clip-rule="nonzero"/></clipPath><clipPath id="56295f9d97"><path d="M 72.171875 86.164062 L 88.757812 76.148438 L 98.773438 92.734375 L 82.1875 102.75 Z M 72.171875 86.164062 " clip-rule="nonzero"/></clipPath><clipPath id="7e6ffc2e76"><path d="M 80.464844 81.15625 C 75.882812 83.921875 74.414062 89.875 77.179688 94.457031 C 79.945312 99.035156 85.898438 100.507812 90.480469 97.742188 C 95.058594 94.976562 96.53125 89.023438 93.765625 84.441406 C 91 79.859375 85.046875 78.390625 80.464844 81.15625 Z M 80.464844 81.15625 " clip-rule="nonzero"/></clipPath><clipPath id="29bbfec804"><path d="M 0 0 L 21 0 L 21 21 L 0 21 Z M 0 0 " clip-rule="nonzero"/></clipPath><clipPath id="881a22f62c"><path d="M -2.828125 7.164062 L 13.757812 -2.851562 L 23.773438 13.734375 L 7.1875 23.75 Z M -2.828125 7.164062 " clip-rule="nonzero"/></clipPath><clipPath id="97bd209e82"><path d="M 5.464844 2.15625 C 0.882812 4.921875 -0.585938 10.875 2.179688 15.457031 C 4.945312 20.035156 10.898438 21.507812 15.480469 18.742188 C 20.058594 15.976562 21.53125 10.023438 18.765625 5.441406 C 16 0.859375 10.046875 -0.609375 5.464844 2.15625 Z M 5.464844 2.15625 " clip-rule="nonzero"/></clipPath><clipPath id="25c10fc578"><rect x="0" width="21" y="0" height="21"/></clipPath><clipPath id="447d7d045b"><path d="M 65 76 L 105 76 L 105 102 L 65 102 Z M 65 76 " clip-rule="nonzero"/></clipPath><clipPath id="5c7cf1eea5"><path d="M 65.308594 99.203125 L 103.363281 76.226562 L 104.894531 78.761719 L 66.839844 101.738281 Z M 65.308594 99.203125 " clip-rule="nonzero"/></clipPath><clipPath id="08c72e0279"><path d="M 0.0898438 0.109375 L 40 0.109375 L 40 25.953125 L 0.0898438 25.953125 Z M 0.0898438 0.109375 " clip-rule="nonzero"/></clipPath><clipPath id="81719e9ff7"><path d="M 0.308594 23.203125 L 38.363281 0.226562 L 39.894531 2.761719 L 1.839844 25.738281 Z M 0.308594 23.203125 " clip-rule="nonzero"/></clipPath><clipPath id="e7d7aba5d8"><rect x="0" width="40" y="0" height="26"/></clipPath><clipPath id="57e5ff2c44"><path d="M 72 68 L 98 68 L 98 109 L 72 109 Z M 72 68 " clip-rule="nonzero"/></clipPath><clipPath id="9ca10b4ffe"><path d="M 95.277344 108.554688 L 72.300781 70.496094 L 74.835938 68.96875 L 97.8125 107.023438 Z M 95.277344 108.554688 " clip-rule="nonzero"/></clipPath><clipPath id="bd16143a07"><path d="M 0.265625 0.929688 L 25.871094 0.929688 L 25.871094 40.652344 L 0.265625 40.652344 Z M 0.265625 0.929688 " clip-rule="nonzero"/></clipPath><clipPath id="4bd190380d"><path d="M 23.277344 40.554688 L 0.300781 2.496094 L 2.835938 0.96875 L 25.8125 39.023438 Z M 23.277344 40.554688 " clip-rule="nonzero"/></clipPath><clipPath id="6a556210ad"><rect x="0" width="26" y="0" height="41"/></clipPath><clipPath id="773fb82670"><path d="M 78 67 L 92 67 L 92 112 L 78 112 Z M 78 67 " clip-rule="nonzero"/></clipPath><clipPath id="6652b7b274"><path d="M 78.128906 110.570312 L 88.789062 67.410156 L 91.664062 68.121094 L 81.003906 111.277344 Z M 78.128906 110.570312 " clip-rule="nonzero"/></clipPath><clipPath id="6a6a8d4404"><path d="M 0.0117188 0.253906 L 13.890625 0.253906 L 13.890625 44.285156 L 0.0117188 44.285156 Z M 0.0117188 0.253906 " clip-rule="nonzero"/></clipPath><clipPath id="efbb63637e"><path d="M 0.128906 43.570312 L 10.789062 0.410156 L 13.664062 1.121094 L 3.003906 44.277344 Z M 0.128906 43.570312 " clip-rule="nonzero"/></clipPath><clipPath id="fdc79855e9"><rect x="0" width="14" y="0" height="45"/></clipPath><clipPath id="1754b993a3"><path d="M 63 81 L 107 81 L 107 96 L 63 96 Z M 63 81 " clip-rule="nonzero"/></clipPath><clipPath id="0acab3a20a"><path d="M 106.230469 95.449219 L 63.074219 84.785156 L 63.785156 81.910156 L 106.941406 92.574219 Z M 106.230469 95.449219 " clip-rule="nonzero"/></clipPath><clipPath id="1de0650fa6"><path d="M 0 0.851562 L 43.964844 0.851562 L 43.964844 14.492188 L 0 14.492188 Z M 0 0.851562 " clip-rule="nonzero"/></clipPath><clipPath id="542055d7a2"><path d="M 43.230469 14.449219 L 0.0742188 3.785156 L 0.785156 0.910156 L 43.941406 11.574219 Z M 43.230469 14.449219 " clip-rule="nonzero"/></clipPath><clipPath id="a7b2a8f735"><rect x="0" width="44" y="0" height="15"/></clipPath><clipPath id="b97718ff44"><path d="M 0 54 L 80 54 L 80 177.988281 L 0 177.988281 Z M 0 54 " clip-rule="nonzero"/></clipPath><clipPath id="2b4ade4ad0"><path d="M 0 58.257812 L 6.933594 54.070312 L 79.140625 173.660156 L 72.203125 177.847656 Z M 0 58.257812 " clip-rule="nonzero"/></clipPath><clipPath id="935d702151"><path d="M 0 0 L 79.207031 0 L 79.207031 123.988281 L 0 123.988281 Z M 0 0 " clip-rule="nonzero"/></clipPath><clipPath id="598e782942"><path d="M 0 4.257812 L 6.933594 0.0703125 L 79.140625 119.660156 L 72.203125 123.847656 Z M 0 4.257812 " clip-rule="nonzero"/></clipPath><clipPath id="6a2e646dc8"><rect x="0" width="80" y="0" height="124"/></clipPath><clipPath id="ee5a6905a8"><path d="M 89 0.0117188 L 168.941406 0.0117188 L 168.941406 124 L 89 124 Z M 89 0.0117188 " clip-rule="nonzero"/></clipPath><clipPath id="0d709db844"><path d="M 89.605469 4.3125 L 96.539062 0.125 L 168.742188 119.714844 L 161.808594 123.902344 Z M 89.605469 4.3125 " clip-rule="nonzero"/></clipPath><clipPath id="5137d0c5fe"><path d="M 0.496094 0.0117188 L 79.941406 0.0117188 L 79.941406 123.96875 L 0.496094 123.96875 Z M 0.496094 0.0117188 " clip-rule="nonzero"/></clipPath><clipPath id="a779dbe091"><path d="M 0.605469 4.3125 L 7.539062 0.125 L 79.742188 119.714844 L 72.808594 123.902344 Z M 0.605469 4.3125 " clip-rule="nonzero"/></clipPath><clipPath id="bc5b7290d0"><rect x="0" width="80" y="0" height="124"/></clipPath><clipPath id="646d99cd81"><rect x="0" width="169" y="0" height="178"/></clipPath></defs><g clip-path="url(#a8de01be5e)"><g transform="matrix(1, 0, 0, 1, 0, 0.00000000000002073)"><g clip-path="url(#646d99cd81)"><g clip-path="url(#a0809891eb)"><g clip-path="url(#898f62e4c5)"><g transform="matrix(1, 0, 0, 1, 39, 58)"><g clip-path="url(#04d4db889f)"><g clip-path="url(#13e32c5197)"><g clip-path="url(#ce6ff80066)"><path fill="#737373" d="M 6.941406 62.101562 L 0.613281 51.621094 L 85.109375 0.605469 L 91.4375 11.085938 Z M 6.941406 62.101562 " fill-opacity="1" fill-rule="nonzero"/></g></g></g></g></g></g><g clip-path="url(#2b5b8f15d8)"><g clip-path="url(#1bf6be77a1)"><g clip-path="url(#fb3b791337)"><g transform="matrix(1, 0, 0, 1, 58, 62)"><g clip-path="url(#4f50b672bc)"><g clip-path="url(#a6ef464fa5)"><g clip-path="url(#6fa20751e8)"><g clip-path="url(#e441435283)"><path fill="#737373" d="M -9.28125 17.898438 L 35.703125 -9.261719 L 62.863281 35.722656 L 17.878906 62.882812 Z M -9.28125 17.898438 " fill-opacity="1" fill-rule="nonzero"/></g></g></g></g></g></g></g></g><g clip-path="url(#ec6ffab928)"><g clip-path="url(#7973dc2670)"><g clip-path="url(#1a25f2d16e)"><g transform="matrix(1, 0, 0, 1, 61, 66)"><g clip-path="url(#b5a6e4e199)"><g clip-path="url(#fef3f73589)"><g clip-path="url(#1f675fa68a)"><g clip-path="url(#72d2d69153)"><path fill="#000000" d="M -7.65625 15.1875 L 31.691406 -8.566406 L 55.445312 30.777344 L 16.101562 54.535156 Z M -7.65625 15.1875 " fill-opacity="1" fill-rule="nonzero"/></g></g></g></g></g></g></g></g><g clip-path="url(#48cd473981)"><g clip-path="url(#a9a807209f)"><g clip-path="url(#1271e934cc)"><g transform="matrix(1, 0, 0, 1, 64, 68)"><g clip-path="url(#c602e01a13)"><g clip-path="url(#118534e5c0)"><g clip-path="url(#ee1e9a95be)"><g clip-path="url(#6b30d40b20)"><path fill="#737373" d="M -7.785156 13.9375 L 28.101562 -7.726562 L 49.765625 28.15625 L 13.882812 49.824219 Z M -7.785156 13.9375 " fill-opacity="1" fill-rule="nonzero"/></g></g></g></g></g></g></g></g><g clip-path="url(#d95da8ae73)"><g clip-path="url(#56295f9d97)"><g clip-path="url(#7e6ffc2e76)"><g transform="matrix(1, 0, 0, 1, 75, 79)"><g clip-path="url(#25c10fc578)"><g clip-path="url(#29bbfec804)"><g clip-path="url(#881a22f62c)"><g clip-path="url(#97bd209e82)"><path fill="#000000" d="M -2.828125 7.164062 L 13.757812 -2.851562 L 23.773438 13.734375 L 7.1875 23.75 Z M -2.828125 7.164062 " fill-opacity="1" fill-rule="nonzero"/></g></g></g></g></g></g></g></g><g clip-path="url(#447d7d045b)"><g clip-path="url(#5c7cf1eea5)"><g transform="matrix(1, 0, 0, 1, 65, 76)"><g clip-path="url(#e7d7aba5d8)"><g clip-path="url(#08c72e0279)"><g clip-path="url(#81719e9ff7)"><path fill="#000000" d="M 0.308594 23.203125 L 38.367188 0.222656 L 39.898438 2.757812 L 1.839844 25.738281 Z M 0.308594 23.203125 " fill-opacity="1" fill-rule="nonzero"/></g></g></g></g></g></g><g clip-path="url(#57e5ff2c44)"><g clip-path="url(#9ca10b4ffe)"><g transform="matrix(1, 0, 0, 1, 72, 68)"><g clip-path="url(#6a556210ad)"><g clip-path="url(#bd16143a07)"><g clip-path="url(#4bd190380d)"><path fill="#000000" d="M 23.277344 40.554688 L 0.300781 2.496094 L 2.832031 0.964844 L 25.8125 39.023438 Z M 23.277344 40.554688 " fill-opacity="1" fill-rule="nonzero"/></g></g></g></g></g></g><g clip-path="url(#773fb82670)"><g clip-path="url(#6652b7b274)"><g transform="matrix(1, 0, 0, 1, 78, 67)"><g clip-path="url(#fdc79855e9)"><g clip-path="url(#6a6a8d4404)"><g clip-path="url(#efbb63637e)"><path fill="#000000" d="M 0.128906 43.570312 L 10.792969 0.40625 L 13.664062 1.117188 L 3.003906 44.277344 Z M 0.128906 43.570312 " fill-opacity="1" fill-rule="nonzero"/></g></g></g></g></g></g><g clip-path="url(#1754b993a3)"><g clip-path="url(#0acab3a20a)"><g transform="matrix(1, 0, 0, 1, 63, 81)"><g clip-path="url(#a7b2a8f735)"><g clip-path="url(#1de0650fa6)"><g clip-path="url(#542055d7a2)"><path fill="#000000" d="M 43.230469 14.449219 L 0.0703125 3.785156 L 0.78125 0.910156 L 43.941406 11.574219 Z M 43.230469 14.449219 " fill-opacity="1" fill-rule="nonzero"/></g></g></g></g></g></g><g clip-path="url(#b97718ff44)"><g clip-path="url(#2b4ade4ad0)"><g transform="matrix(1, 0, 0, 1, 0, 54)"><g clip-path="url(#6a2e646dc8)"><g clip-path="url(#935d702151)"><g clip-path="url(#598e782942)"><path fill="#545454" d="M 0 4.257812 L 6.933594 0.0703125 L 79.144531 119.667969 L 72.210938 123.855469 Z M 0 4.257812 " fill-opacity="1" fill-rule="nonzero"/></g></g></g></g></g></g><g clip-path="url(#ee5a6905a8)"><g clip-path="url(#0d709db844)"><g transform="matrix(1, 0, 0, 1, 89, 0.00000000000002073)"><g clip-path="url(#bc5b7290d0)"><g clip-path="url(#5137d0c5fe)"><g clip-path="url(#a779dbe091)"><path fill="#545454" d="M 0.605469 4.3125 L 7.539062 0.125 L 79.75 119.722656 L 72.8125 123.910156 Z M 0.605469 4.3125 " fill-opacity="1" fill-rule="nonzero"/></g></g></g></g></g></g></g></g></g></svg>